<?xml version="1.0" encoding="UTF-8"?>
<svg version="1.1" viewBox="0 0 1000 1000" xmlns="http://www.w3.org/2000/svg">
<g transform="translate(-.14222 -.14222)">
<svg width="1e3" height="1e3" data-background-color="#ffffff" viewBox="0 0 334 334" xmlns="http://www.w3.org/2000/svg" xmlns:xlink="http://www.w3.org/1999/xlink">
<g transform="translate(.0475 .0475)">
<svg width="333.9" height="333.9" viewBox="0 0 333.90454557049503 333.90454557049503">
<svg/>
<svg width="333.9" height="333.9" viewBox="0 0 333.90454557049503 333.90454557049503">
<g fill="#0063db" stroke="transparent">
<path d="m0 166.95c0-92.205 74.747-166.95 166.95-166.95s166.95 74.747 166.95 166.95c0 92.205-74.747 166.95-166.95 166.95-92.205 0-166.95-74.747-166.95-166.95zm166.95 149.68c82.665 0 149.68-67.013 149.68-149.68 0-82.665-67.013-149.68-149.68-149.68s-149.68 67.013-149.68 149.68c0 82.665 67.013 149.68 149.68 149.68z" data-fill-palette-color="tertiary"/>
<ellipse cx="166.95" cy="166.95" rx="160.27" ry="160.27" stroke-width="0" data-fill-palette-color="tertiary"/>
</g>
<g transform="translate(98.083 71.173)">
<svg width="137.74" height="191.56" viewBox="0 0 137.73795496740132 191.55844122715712">
<svg width="137.74" height="191.56" viewBox="0 0 137.73795496740132 191.55844122715712">
<svg width="137.74" height="191.56" viewBox="0 0 137.73795496740132 191.55844122715712">
<svg width="137.74" height="191.56" viewBox="0 0 137.73795496740132 191.55844122715712">
<svg width="137.74" height="191.56" viewBox="0 0 137.73795496740132 191.55844122715712">
<svg width="137.74" height="191.56" viewBox="0 0 137.73795496740132 191.55844122715712">
<g>
<svg width="137.74" height="191.56" data-palette-color="#ffffff" viewBox="1.12 -26.42 19 26.42">
<path class="wordmark-text-0" d="m5.52-26.42 5.2 19.85 5-19.85h4.4l-7.84 26.42h-3.22l-7.94-26.42h4.4z" fill="#fff" data-fill-palette-color="quaternary"/>
</svg>
</g>
</svg>
</svg>
</svg>
</svg>
</svg>
</svg>
</g>
</svg>
</svg>
<rect width="333.9" height="333.9" fill="none" visibility="hidden"/>
</g>
</svg>
</g>
</svg>
